<svg width="1920" height="1080" viewBox="0 0 1920 1080" xmlns="http://www.w3.org/2000/svg">
  <defs>
    <linearGradient id="bgGrad1" x1="0%" y1="0%" x2="100%" y2="100%">
      <stop offset="0%" style="stop-color:#3b82f6;stop-opacity:0.08" />
      <stop offset="50%" style="stop-color:#8b5cf6;stop-opacity:0.05" />
      <stop offset="100%" style="stop-color:#3b82f6;stop-opacity:0.08" />
    </linearGradient>
    <linearGradient id="bgGrad2" x1="0%" y1="0%" x2="100%" y2="100%">
      <stop offset="0%" style="stop-color:#8b5cf6;stop-opacity:0.06" />
      <stop offset="100%" style="stop-color:#3b82f6;stop-opacity:0.04" />
    </linearGradient>
    <radialGradient id="highlight1">
      <stop offset="0%" style="stop-color:#60a5fa;stop-opacity:0.15" />
      <stop offset="100%" style="stop-color:#60a5fa;stop-opacity:0" />
    </radialGradient>
    <radialGradient id="highlight2">
      <stop offset="0%" style="stop-color:#a78bfa;stop-opacity:0.12" />
      <stop offset="100%" style="stop-color:#a78bfa;stop-opacity:0" />
    </radialGradient>
  </defs>
  
  <!-- Large background circles -->
  <circle cx="300" cy="200" r="250" fill="url(#bgGrad1)" opacity="0.6"/>
  <circle cx="1620" cy="880" r="300" fill="url(#bgGrad2)" opacity="0.5"/>
  <circle cx="1400" cy="150" r="200" fill="url(#bgGrad1)" opacity="0.4"/>
  
  <!-- Subtle highlights -->
  <circle cx="500" cy="300" r="180" fill="url(#highlight1)"/>
  <circle cx="1500" cy="700" r="220" fill="url(#highlight2)"/>
  <circle cx="200" cy="800" r="150" fill="url(#highlight1)"/>
  
  <!-- Geometric shapes - triangles -->
  <polygon points="150,100 200,50 250,100 200,150" fill="none" stroke="#3b82f6" stroke-width="1" opacity="0.15"/>
  <polygon points="1700,200 1750,150 1800,200 1750,250" fill="none" stroke="#8b5cf6" stroke-width="1" opacity="0.12"/>
  <polygon points="100,900 150,850 200,900 150,950" fill="none" stroke="#3b82f6" stroke-width="1" opacity="0.1"/>
  
  <!-- Geometric shapes - squares (rotated) -->
  <rect x="1600" y="50" width="120" height="120" fill="none" stroke="#8b5cf6" stroke-width="1" opacity="0.1" transform="rotate(45 1660 110)"/>
  <rect x="50" y="500" width="100" height="100" fill="none" stroke="#3b82f6" stroke-width="1" opacity="0.12" transform="rotate(45 100 550)"/>
  
  <!-- Subtle lines connecting elements -->
  <line x1="500" y1="300" x2="700" y2="400" stroke="#3b82f6" stroke-width="0.5" opacity="0.08"/>
  <line x1="1500" y1="700" x2="1300" y2="600" stroke="#8b5cf6" stroke-width="0.5" opacity="0.08"/>
  <line x1="200" y1="800" x2="400" y2="700" stroke="#3b82f6" stroke-width="0.5" opacity="0.08"/>
  
  <!-- Small decorative dots -->
  <circle cx="800" cy="150" r="2" fill="#60a5fa" opacity="0.3"/>
  <circle cx="1200" cy="350" r="2.5" fill="#a78bfa" opacity="0.35"/>
  <circle cx="400" cy="650" r="2" fill="#60a5fa" opacity="0.3"/>
  <circle cx="1600" cy="450" r="3" fill="#3b82f6" opacity="0.25"/>
  <circle cx="200" cy="350" r="2" fill="#8b5cf6" opacity="0.3"/>
  <circle cx="1400" cy="900" r="2.5" fill="#60a5fa" opacity="0.3"/>
  <circle cx="600" cy="850" r="2" fill="#a78bfa" opacity="0.35"/>
  <circle cx="1000" cy="750" r="3" fill="#3b82f6" opacity="0.25"/>
</svg>

